<svg width="72" height="56" viewBox="0 0 72 56" fill="none" xmlns="http://www.w3.org/2000/svg">
<path d="M62.4 15.5H9.6C5.95492 15.5 3 18.3885 3 21.9516L3 46.5484C3 50.1115 5.95492 53 9.6 53H62.4C66.0451 53 69 50.1115 69 46.5484V21.9516C69 18.3885 66.0451 15.5 62.4 15.5Z" fill="#9C9C9C"/>
<path d="M9.6 15.5H62.4C66.0451 15.5 69 18.3885 69 21.9516V13C69 8.16129 65.7 6.54839 62.4 6.54839H35C33.35 6.54839 29.4 3 26.925 3L9.6 3C7.125 3 3 5.41935 3 9.45161L3 21.9516C3 18.3885 5.95492 15.5 9.6 15.5Z" fill="#BFBFBF"/>
<path d="M3 46.5484C3 46.5484 3 25.5147 3 21.9516M3 46.5484C3 50.1115 5.95492 53 9.6 53H62.4C66.0451 53 69 50.1115 69 46.5484V21.9516M3 46.5484L3 21.9516M62.4 15.5C58.7549 15.5 9.6 15.5 9.6 15.5M62.4 15.5C66.0451 15.5 69 18.3885 69 21.9516M62.4 15.5H9.6M69 21.9516C69 21.9516 69 17.8387 69 13M69 21.9516V13M9.6 15.5C5.95492 15.5 3 18.3885 3 21.9516M3 21.9516C3 21.9516 3 13.4839 3 9.45161M3 21.9516L3 9.45161M3 9.45161C3 5.41935 7.125 3 9.6 3M9.6 3C12.075 3 24.45 3 26.925 3M9.6 3L26.925 3M26.925 3C29.4 3 33.35 6.54839 35 6.54839M35 6.54839C36.65 6.54839 59.1 6.54839 62.4 6.54839M35 6.54839H62.4M62.4 6.54839C65.7 6.54839 69 8.16129 69 13" stroke="black" stroke-width="5"/>
</svg>
