<svg width="50" height="50" viewBox="0 0 50 50" fill="none" xmlns="http://www.w3.org/2000/svg">
<path fill-rule="evenodd" clip-rule="evenodd" d="M33.3051 6.43503C40.2474 13.3774 40.6943 24.3554 34.6458 31.8173L49.5685 46.7401L46.7401 49.5685L31.8173 34.6458C24.3554 40.6943 13.3774 40.2474 6.43503 33.3051C-0.984934 25.8851 -0.984931 13.855 6.43503 6.43503C13.855 -0.984932 25.8851 -0.984935 33.3051 6.43503ZM30.4767 30.4767C36.3345 24.6188 36.3345 15.1213 30.4767 9.26345C24.6188 3.40559 15.1213 3.40559 9.26346 9.26345C3.40559 15.1213 3.40559 24.6188 9.26346 30.4767C15.1213 36.3345 24.6188 36.3345 30.4767 30.4767Z" fill="#0C8CE9"/>
</svg>
